<svg width="42" height="58" viewBox="0 0 42 58" fill="none" xmlns="http://www.w3.org/2000/svg">
<path d="M22.4 0H16.85V3.83198H22.4V0Z" fill="#4E71FF"/>
<path d="M26.23 5.0426H23H16.25H13.63V11.9062H26.23V5.0426Z" fill="#4E71FF"/>
<path d="M25.22 25.8233L36.01 29.4552L36.92 26.3236L20.89 20.5706L20.69 20.4706V47.2044H30.97L35.71 30.5558L24.92 26.9239C24.62 26.8239 24.42 26.4237 24.52 26.1135C24.62 25.8133 24.92 25.6132 25.22 25.8133V25.8233Z" fill="#4E71FF"/>
<path d="M19.88 18.9598H19.98L34.5 24.1025V16.9388H25.53C25.23 16.9388 24.93 16.6386 24.93 16.3384C24.93 16.0383 25.23 15.7281 25.53 15.7281H34.5V13.2068H31.17V9.57495C31.17 9.27479 30.87 8.97464 30.56 8.97464C30.25 8.97464 29.96 9.27479 29.96 9.57495V13.2068H9.8V9.57495C9.8 9.27479 9.5 8.97464 9.2 8.97464C8.9 8.97464 8.59 9.27479 8.59 9.57495V13.2068H5.57V15.7281H14.24C14.54 15.7281 14.85 16.0283 14.85 16.3384C14.85 16.6486 14.55 16.9388 14.24 16.9388H5.56V24.1025L19.88 18.9598Z" fill="#4E71FF"/>
<path d="M14.84 25.8234C15.14 25.7233 15.55 25.9234 15.65 26.2236C15.75 26.5237 15.55 26.9339 15.25 27.034L4.45999 30.6659L9.19999 47.3145H19.48V20.4806L19.28 20.5806L3.23999 26.3236L4.14999 29.4552L14.84 25.8234Z" fill="#4E71FF"/>
<path d="M39.94 55.4787C37.52 53.6578 35.3 53.7678 33.99 54.168C32.58 54.5682 31.67 55.3787 31.57 55.4787C31.57 55.4787 30.86 56.1891 29.65 56.4892C29.35 56.5893 29.04 56.5893 28.74 56.6893H28.34C27.63 56.6893 26.83 56.4892 25.92 56.079H25.82C25.72 56.079 25.72 55.979 25.62 55.979C25.52 55.979 25.52 55.8789 25.42 55.8789C25.42 55.8789 25.32 55.8789 25.32 55.7789C25.22 55.7789 25.12 55.6788 25.12 55.5788H25.02C24.92 55.4787 24.82 55.4787 24.72 55.3787C22.4 53.6678 20.39 53.6678 18.97 54.068C18.87 54.068 18.77 54.068 18.77 54.168C17.36 54.5682 16.45 55.3787 16.35 55.4787C16.35 55.4787 15.64 56.1891 14.43 56.4892C12.82 56.9895 11.2 56.5893 9.48999 55.3787C7.87999 54.168 6.35999 53.8679 5.14999 53.8679C4.13999 53.8679 3.33999 54.168 2.62999 54.4682C2.32999 54.5682 2.12999 54.9684 2.32999 55.2786C2.42999 55.5788 2.82999 55.7789 3.13999 55.5788C4.34999 54.9784 6.36999 54.6683 8.78999 56.3892C11.21 58.2001 13.43 58.1001 14.74 57.6999C16.25 57.2996 17.16 56.3892 17.16 56.3892C17.16 56.3892 17.87 55.6788 19.08 55.3787C20.69 54.8784 22.31 55.2786 24.02 56.4892C25.63 57.5998 27.15 58 28.36 58C28.96 58 29.57 57.9 30.07 57.7999C31.58 57.3997 32.49 56.4892 32.49 56.4892C32.49 56.4892 33.2 55.7789 34.4 55.4787C36.01 54.9784 37.63 55.3787 39.34 56.5893C39.64 56.7894 40.05 56.6893 40.25 56.4892C40.25 56.089 40.25 55.6788 39.95 55.4787H39.94Z" fill="#4E71FF"/>
<path d="M41.05 50.4361C39.34 49.3255 37.82 48.9253 36.61 48.9253C35.9 48.9253 35.4 49.0253 34.9 49.1254C33.39 49.5256 32.38 50.4361 32.38 50.4361C32.28 50.5361 30.97 51.6467 28.95 51.6467C27.84 51.6467 26.63 51.3465 25.22 50.336C23.91 49.4256 22.8 49.0253 21.69 48.9253C20.68 48.8252 19.77 48.9253 18.97 49.1254C17.46 49.5256 16.45 50.4361 16.45 50.4361C16.35 50.4361 15.85 50.9363 14.94 51.3465H14.84C13.53 51.7468 11.61 51.9469 9.38999 50.336C6.86999 48.5151 4.54999 48.6251 3.03999 49.1254C2.22999 49.3255 1.62999 49.7257 1.22999 50.0359C0.929986 50.236 0.829986 50.6362 1.02999 50.9463C1.12999 51.1464 1.42999 51.2465 1.63999 51.2465C1.73999 51.2465 1.83999 51.2465 1.93999 51.1464C2.43999 50.7462 3.54999 50.236 4.85999 50.236C5.96999 50.236 7.27999 50.5361 8.68999 51.5466C8.78999 51.6467 8.88999 51.6467 8.88999 51.7468C8.88999 51.7468 8.98999 51.7468 8.98999 51.8468C9.08999 51.8468 9.08999 51.9469 9.18999 51.9469C9.18999 51.9469 9.28999 51.9469 9.28999 52.0469C9.38999 52.0469 9.38999 52.147 9.48999 52.147H9.58999C9.68999 52.147 9.78999 52.247 9.88999 52.247H9.98999C10.09 52.247 10.09 52.3471 10.19 52.3471H10.29C10.39 52.3471 10.39 52.4471 10.49 52.4471H10.59C10.69 52.4471 10.79 52.5472 10.79 52.5472H10.89C10.9567 52.5472 11.0233 52.5805 11.09 52.6472H11.49C11.59 52.6472 11.69 52.6472 11.69 52.7473H15.12C16.63 52.3471 17.64 51.4366 17.64 51.4366C17.64 51.4366 20.56 48.8152 24.5 51.3365C24.6 51.4366 24.7 51.4366 24.8 51.5366C24.9 51.6367 25 51.6367 25.1 51.7367H25.2C25.3 51.7367 25.3 51.8368 25.4 51.8368H25.5C25.6 51.8368 25.7 51.9369 25.7 51.9369C25.8 51.9369 25.9 52.0369 26 52.0369H26.1C26.2 52.0369 26.2 52.137 26.3 52.137H26.4C26.5 52.137 26.5 52.237 26.6 52.237H26.7C26.8 52.237 26.9 52.3371 27 52.3371H27.1C27.1667 52.3371 27.2333 52.3704 27.3 52.4371H27.4C27.4667 52.4371 27.5333 52.4705 27.6 52.5372H27.7C27.8 52.5372 27.9 52.5372 27.9 52.6372H31.23C32.74 52.237 33.75 51.3265 33.75 51.3265C33.85 51.2265 35.16 50.1159 37.18 50.1159C38.29 50.1159 39.5 50.4161 40.91 51.4266C41.01 51.5266 41.11 51.5266 41.21 51.5266C41.41 51.5266 41.61 51.4266 41.71 51.2265C41.31 51.0264 41.31 50.6162 41 50.4161L41.05 50.4361Z" fill="#4E71FF"/>
</svg>
