<svg width="50" height="50" viewBox="0 0 50 50" fill="none" xmlns="http://www.w3.org/2000/svg">
<g clip-path="url(#clip0_7_101)">
<rect width="50" height="50" fill="white"/>
<path d="M3.1523 48.4518C2.59696 47.7098 2.37956 46.9399 2.27434 46.1058C2.00816 44.0063 2.18863 41.9041 2.18863 39.804C2.18863 37.5718 2.24717 35.3389 2.29733 33.1067C2.31197 32.4486 2.34472 31.7849 2.44924 31.1366C2.49592 30.8459 2.70008 30.5525 2.90146 30.3205C3.81496 29.2656 4.75006 28.2302 5.68237 27.192C5.89071 26.9601 6.12135 26.7491 6.33596 26.5234C6.39937 26.457 6.44466 26.3732 6.53664 26.2425C6.34781 26.2314 6.23632 26.2237 6.12484 26.2174C5.33955 26.172 4.55077 26.1531 3.76897 26.0707C3.4136 26.033 3.04918 25.9163 2.72935 25.7549C2.12523 25.4517 1.99841 24.9347 2.3266 24.3115C2.64643 23.7044 3.15161 23.332 3.81078 23.1608C4.12712 23.0784 4.43859 22.9652 4.75981 22.9163C5.30192 22.8339 5.80431 22.9519 6.18964 23.3711C6.43143 23.6338 6.64116 23.9265 6.86971 24.2018C7.16236 24.5546 7.48638 24.5462 7.70796 24.1515C8.14345 23.3753 8.55038 22.5837 8.97961 21.8041C9.25206 21.3094 9.53774 20.8225 9.83318 20.3418C9.86315 20.2936 10.0457 20.2691 10.0785 20.3048C10.2269 20.4689 10.3558 20.6534 10.4701 20.8434C10.4972 20.8881 10.4554 20.9908 10.422 21.0544C9.77117 22.2945 9.10991 23.529 8.46886 24.774C8.30929 25.0842 8.21383 25.4272 8.07377 25.7954C8.26609 25.8073 8.36852 25.8199 8.47095 25.8199C9.63251 25.8143 10.7934 25.8157 11.9542 25.794C12.4148 25.7856 12.8747 25.7235 13.3353 25.685C13.5234 25.669 13.6286 25.7325 13.7457 25.9114C14.4035 26.9167 15.3149 27.5008 16.5489 27.4959C17.0039 27.4945 17.3976 27.2989 17.7056 27.0027C18.1216 26.6024 18.6065 26.631 19.0915 26.6918C19.4559 26.7372 19.6671 27.1997 19.5291 27.6377C19.2274 28.597 19.6343 29.3215 20.3492 29.8441C21.4028 30.6133 22.5769 30.7307 23.774 30.1487C24.2067 29.9384 24.5203 29.5765 24.6582 29.1203C24.7857 28.6976 25.0756 28.4789 25.4219 28.2728C26.1689 27.8285 26.2274 28.043 26.5187 28.6403C26.7932 29.2034 27.1019 29.7211 27.6893 29.9614C28.3289 30.2234 28.9972 30.2444 29.6786 30.0488C30.312 29.8664 30.8597 29.5758 31.2917 29.0686C31.7739 28.502 31.9885 27.8928 31.7349 27.1473C31.6819 26.9915 31.7816 26.7665 31.8519 26.5898C31.9349 26.3816 32.0519 26.1846 32.1746 25.9959C32.3362 25.7472 32.5362 25.5956 32.8365 25.8164C32.971 25.9156 33.1299 25.9827 33.2567 26.0902C34.0252 26.7393 34.8593 26.6848 35.7219 26.3313C35.8244 26.2894 35.9345 26.2391 36.0097 26.1622C36.4654 25.6941 37.0243 25.6403 37.6402 25.6745C38.9007 25.7458 40.1633 25.7724 41.4252 25.8164C41.5625 25.8213 41.7005 25.8164 41.9492 25.8164C40.9793 23.9258 40.047 22.108 39.1028 20.267C39.2916 20.1182 39.4853 19.9659 39.7055 19.7926C39.7738 19.8709 39.8539 19.9352 39.8992 20.0183C40.4483 21.0327 40.9925 22.0493 41.536 23.0665C41.6893 23.3529 41.805 23.6659 41.9952 23.9237C42.3199 24.3632 42.561 24.3772 42.9937 24.0341C43.186 23.8818 43.3756 23.7176 43.5365 23.5332C44.103 22.8828 44.7928 22.7186 45.5879 23.0029C46.0722 23.1762 46.5669 23.3446 47.0128 23.5947C47.665 23.9601 47.8281 24.6657 47.6859 25.2777C47.6392 25.4803 47.3989 25.6941 47.1947 25.7905C46.8714 25.9428 46.5084 26.0553 46.153 26.0881C45.3482 26.1629 44.5378 26.1783 43.7295 26.2195C43.6647 26.223 43.6006 26.2391 43.4348 26.2656C43.8215 26.6121 44.1337 26.9112 44.4653 27.1857C45.6116 28.1345 46.5683 29.2342 47.1083 30.6384C47.2853 31.0981 47.3501 31.6054 47.4351 32.0965C47.7354 33.8389 47.502 35.5974 47.5828 37.3468C47.6274 38.3082 47.7041 39.2681 47.7333 40.2294C47.7828 41.8545 47.8859 43.483 47.8141 45.1039C47.7633 46.2441 47.6246 47.4199 46.8156 48.4427C47.0045 48.4595 47.1215 48.4791 47.2386 48.4798C47.8539 48.4832 48.4698 48.4728 49.0851 48.4846C49.4426 48.4916 49.7763 48.5978 49.9352 48.952C50.1651 49.4655 49.7638 50.0035 49.214 49.9993C45.5907 49.9749 41.968 49.9867 38.3447 49.9867C25.8609 49.9867 13.3778 49.9867 0.893987 49.9867C0.340731 49.9867 0.218792 49.9092 0.0383217 49.4544C-0.0759529 49.1651 0.0912782 48.7222 0.38672 48.6083C0.576248 48.5356 0.786681 48.4916 0.989448 48.486C1.56988 48.47 2.15031 48.4818 2.73144 48.4791C2.85338 48.4791 2.97462 48.463 3.15439 48.4504L3.1523 48.4518ZM24.9871 32.9496C23.1176 32.9496 21.2488 32.9419 19.3793 32.9558C19.0281 32.9586 18.6595 32.9915 18.3306 33.104C17.275 33.4665 16.3301 34.5152 16.351 35.7798C16.3629 36.4777 16.3427 37.1771 16.3594 37.875C16.365 38.1104 16.4249 38.3473 16.4841 38.5771C16.783 39.7369 17.9982 40.6444 19.2873 40.6368C23.0375 40.6137 26.7876 40.6319 30.5378 40.6235C30.8674 40.6228 31.1976 40.5585 31.5251 40.5054C32.6059 40.3293 33.6657 39.0201 33.6476 37.8848C33.6357 37.1519 33.6434 36.4183 33.6455 35.6847C33.6469 35.0685 33.4072 34.5299 33.0351 34.0723C32.4136 33.308 31.5802 32.9496 30.5949 32.9496C28.7254 32.9496 26.8566 32.9496 24.9871 32.9496ZM40.8023 45.2765C40.3271 45.215 39.9403 45.136 39.5508 45.12C38.1266 45.062 36.7016 44.9844 35.2767 44.9879C28.1631 45.0026 21.0488 45.0333 13.9352 45.0766C12.5235 45.085 11.1125 45.1717 9.70079 45.2227C9.12942 45.2436 9.14684 45.245 9.12385 45.8235C9.08901 46.7038 9.31756 47.6302 8.634 48.4462H41.382C40.9423 47.9648 40.8678 47.4479 40.8643 46.9008C40.8608 46.3573 40.8239 45.8137 40.8016 45.2772L40.8023 45.2765ZM45.9056 35.0658C45.7265 35.0078 45.5656 34.9086 45.406 34.912C43.6027 34.9491 41.8001 34.9952 39.9975 35.056C39.6331 35.0678 39.2679 35.1321 38.9091 35.2027C38.3328 35.3166 37.758 35.4423 37.1894 35.5911C36.7553 35.7043 36.3351 35.8713 35.9031 35.9936C35.6857 36.055 35.6815 36.2045 35.7582 36.3373C36.1233 36.9682 36.5811 37.5194 37.2584 37.8296C38.2604 38.2886 39.3362 38.5352 40.4163 38.6344C41.6719 38.7497 42.9561 38.8559 44.1831 38.3906C44.8054 38.1545 45.3029 37.7695 45.6394 37.1638C46.0067 36.5022 45.8987 35.8049 45.9056 35.0658ZM6.57148 34.9009C6.57148 34.9009 6.57148 34.903 6.57148 34.9037C5.92137 34.9037 5.27126 34.8939 4.62115 34.9072C4.18217 34.9162 4.09716 35.0127 4.0888 35.4318C4.08392 35.6875 4.08462 35.9439 4.0888 36.1997C4.10134 36.9165 4.44347 37.4908 4.96815 37.9211C5.56252 38.4095 6.29625 38.6288 7.05854 38.6743C8.8521 38.7818 10.6087 38.6086 12.3194 37.9959C13.1771 37.6885 13.7666 37.1247 14.2167 36.3715C14.3066 36.2206 14.3394 36.0655 14.0969 35.9984C13.2823 35.7749 12.4754 35.5227 11.6546 35.3249C11.2233 35.2215 10.7704 35.209 10.3272 35.1566C9.59767 35.0706 8.87021 34.963 8.13858 34.9079C7.61877 34.8687 7.09408 34.9002 6.57218 34.9002L6.57148 34.9009Z" fill="#4E71FF"/>
<path d="M21.1234 0.386347C21.6146 0.338839 22.0745 0.417786 22.4006 0.815315C22.5602 1.00954 22.6361 1.26944 22.7734 1.48462C22.9343 1.73753 23.0946 1.99952 23.3016 2.21191C23.6353 2.55425 24.0416 2.59477 24.4791 2.3733C24.7669 2.22798 25.0916 2.1141 25.3188 1.90031C25.5801 1.65439 25.8254 1.3393 25.9452 1.00605C26.1215 0.516994 26.4783 0.270371 26.9047 0.128546C27.7987 -0.169077 28.6139 0.0642709 29.3038 0.674189C29.6731 1.00116 29.9218 1.391 29.7678 1.96599C29.6076 2.56473 29.8145 3.45829 30.2556 3.65252C30.6723 3.83626 31.0987 3.91661 31.5579 3.82997C32.0547 3.73635 32.4686 3.53375 32.8909 3.22774C33.4288 2.8379 34.0615 3.00487 34.6356 3.31856C35.446 3.76081 36.0578 4.58102 35.8669 5.54026C35.8174 5.78968 35.6237 6.01115 35.4941 6.24449C35.3436 6.51627 35.1394 6.77057 35.0502 7.06051C34.9102 7.51673 35.0558 7.9422 35.4795 8.17555C35.9756 8.44942 36.5065 8.66111 37.0284 8.88677C37.1051 8.91961 37.2166 8.90284 37.3023 8.87699C37.9057 8.69674 38.5356 8.90354 38.9098 9.41006C39.3592 10.0186 39.5989 10.6956 39.4798 11.4522C39.3794 12.0866 38.9516 12.4499 38.3677 12.6846C37.9189 12.8649 37.5023 13.1401 37.3594 13.6411C37.3051 13.8325 37.3309 14.0896 37.418 14.2698C37.611 14.6695 37.8298 15.0684 38.1092 15.41C38.2834 15.6231 38.5677 15.7866 38.8338 15.8732C39.3606 16.0458 39.6588 16.4356 39.7425 16.9142C39.8546 17.5556 39.8595 18.2228 39.4944 18.8222C39.1864 19.328 38.7697 19.7025 38.1719 19.7654C37.8604 19.7982 37.5343 19.6627 37.218 19.6753C36.9643 19.685 36.6954 19.7654 36.4668 19.8814C36.1087 20.063 36.0648 20.4557 36.0251 20.798C35.9394 21.5351 36.0501 22.2169 36.5602 22.8262C36.9838 23.3327 36.8034 23.9244 36.5602 24.4631C36.1951 25.2707 35.3945 25.9778 34.4057 25.8115C34.1437 25.7675 33.9019 25.5851 33.6573 25.4552C33.3758 25.3057 33.1159 25.0905 32.8177 25.001C32.4477 24.89 32.0896 24.9549 31.8101 25.3036C31.3719 25.8506 30.9991 26.4144 30.9914 27.148C30.9914 27.206 30.9754 27.2793 31.0032 27.3199C31.2262 27.6447 31.151 27.9982 30.9593 28.2525C30.7008 28.5956 30.3699 28.9086 30.0117 29.1454C29.5999 29.4179 29.1038 29.4933 28.6021 29.4437C27.9185 29.3767 27.4851 29.0232 27.2419 28.4356C27.0301 27.9242 26.7653 27.4757 26.1814 27.2954C25.849 27.1927 25.617 27.3841 25.3585 27.4896C24.8275 27.7069 24.3809 28.0471 24.0708 28.5397C23.9057 28.8017 23.8179 29.1356 23.6019 29.3354C23.388 29.5332 23.0674 29.668 22.7748 29.7162C22.0933 29.8287 21.4425 29.7197 20.844 29.318C20.343 28.9812 20.0949 28.3867 20.228 27.7977C20.3499 27.2598 20.2447 26.7295 19.9325 26.2831C19.8211 26.1238 19.5486 26.0295 19.3361 25.9973C18.6811 25.8988 18.0233 25.8925 17.4255 26.2495C17.2276 26.3676 17.059 26.5381 16.8576 26.6485C16.3371 26.9342 15.827 26.7197 15.3922 26.478C14.501 25.9826 13.9464 25.263 14.1338 24.1515C14.1498 24.0544 14.193 23.9559 14.2446 23.8713C14.5707 23.3327 14.8048 22.7835 14.5756 22.1345C14.4975 21.913 14.4927 21.665 14.4118 21.4449C14.2941 21.1236 14.0565 20.9063 13.6983 20.9237C13.3025 20.9433 12.9047 20.9845 12.5159 21.0593C12.0434 21.1494 11.2923 20.7854 10.9411 20.2908C10.5 19.6697 10.4199 18.9696 10.5286 18.2577C10.608 17.733 10.9481 17.3627 11.4623 17.1525C11.7584 17.0316 12.0636 16.8793 12.2964 16.6662C12.6838 16.3106 12.6949 15.8628 12.4727 15.3863C12.1682 14.7337 11.8671 14.0994 11.0763 13.9003C10.9132 13.859 10.7641 13.7172 10.6373 13.5929C10.3809 13.3413 10.2401 13.0367 10.2171 12.6637C10.176 11.9874 10.2561 11.3607 10.6338 10.7661C10.9292 10.3001 11.6825 9.89981 12.3493 10.0961C12.8092 10.2317 13.329 10.1171 13.6886 9.76567C13.8621 9.5959 13.9436 9.27802 13.9673 9.01812C14.0363 8.26428 13.9143 7.55515 13.3659 6.96689C13.0482 6.62596 13.0803 6.16415 13.1959 5.78059C13.4203 5.03584 13.8474 4.40915 14.6167 4.11362C15.3191 3.84395 15.5985 3.78526 16.3211 4.31414C16.6221 4.53491 16.9719 4.70538 17.323 4.83533C17.6178 4.94431 17.8861 4.76476 18.0881 4.55657C18.5626 4.06681 18.8414 3.46738 18.9898 2.80506C19.0023 2.74987 18.9974 2.68769 18.9856 2.6318C18.7905 1.72775 19.0657 1.08499 19.8935 0.681874C20.2691 0.498829 20.6948 0.418484 21.0976 0.291331L21.122 0.388443L21.1234 0.386347ZM24.999 23.6142C29.71 23.7058 33.7068 19.669 33.6664 14.9273C33.6232 9.81458 29.6354 6.16415 24.9502 6.15367C20.2893 6.14319 16.3747 9.82506 16.3245 14.8833C16.2772 19.6802 20.244 23.6995 24.999 23.6149V23.6142Z" fill="#4E71FF"/>
<path d="M30.2124 10.4755C30.8123 11.339 29.9553 12.8872 28.9867 13.115C28.5735 13.2121 28.1931 13.2987 27.7834 13.1234C27.7018 13.0884 27.5353 13.1485 27.4607 13.2198C26.9409 13.72 26.4385 14.2377 25.9222 14.7414C25.7787 14.8812 25.787 14.9734 25.9306 15.1082C26.2197 15.3779 26.4852 15.6748 26.7786 15.9396C26.8399 15.9955 27.0378 16.0088 27.0775 15.9613C27.3506 15.635 27.5604 15.788 27.7861 16.0144C28.4725 16.7025 29.1637 17.3851 29.8521 18.0705C30.0688 18.2857 30.2848 18.5008 30.4995 18.7181C30.6939 18.9151 30.7329 19.1331 30.5308 19.3406C30.2319 19.6466 29.9149 19.9352 29.6097 20.2356C29.4508 20.3914 29.3163 20.4123 29.1435 20.237C28.1791 19.2603 27.2092 18.2892 26.2358 17.3222C26.0532 17.1406 26.0664 16.982 26.2469 16.8318C26.4713 16.6452 26.3905 16.4887 26.2232 16.3295C25.964 16.0821 25.6944 15.8453 25.4498 15.584C25.3132 15.4387 25.2331 15.4303 25.0916 15.5784C24.5927 16.0982 24.0659 16.5928 23.5831 17.1266C23.4813 17.2391 23.459 17.4913 23.4994 17.6548C23.652 18.271 23.3552 19.2498 22.8479 19.6187C22.3483 19.9813 21.7902 20.1629 21.168 20.0742C21.0544 20.0581 20.9492 19.9848 20.8272 19.9324C21.2154 19.5348 21.5721 19.1646 21.9351 18.8013C22.1017 18.635 22.1289 18.4953 21.9351 18.3227C21.6599 18.0768 21.3889 17.8239 21.1408 17.5507C20.9993 17.3956 20.9185 17.4061 20.7896 17.5528C20.4349 17.9552 20.0698 18.3485 19.6894 18.7656C19.2337 17.9908 19.4601 17.091 20.1785 16.458C20.6363 16.0549 21.1805 15.9515 21.7533 16.0332C22.186 16.0954 22.4912 15.9787 22.7762 15.6448C23.1204 15.2417 23.5162 14.8833 23.898 14.5137C24.075 14.3425 24.0855 14.214 23.898 14.0295C23.1392 13.2827 22.4055 12.5093 21.6369 11.7722C21.4153 11.5598 21.1157 11.4243 20.8384 11.2789C20.3457 11.0204 20.1423 10.5258 19.8796 10.0898C19.8378 10.02 20.0371 9.77476 20.1618 9.64481C20.2224 9.58193 20.391 9.54909 20.4684 9.58822C20.9973 9.8544 21.4181 10.2198 21.754 10.7382C22.0961 11.2664 22.5755 11.7072 23.0082 12.1732C23.434 12.6308 23.8785 13.0717 24.3126 13.5216C24.507 13.7235 24.6777 13.7494 24.8916 13.5237C25.3271 13.0626 25.801 12.6371 26.2232 12.1648C26.3382 12.0363 26.4135 11.7631 26.3584 11.6101C26.0595 10.7738 26.6734 9.67485 27.3862 9.34439C27.9011 9.10615 28.4369 8.95036 29.0801 9.2892C28.7059 9.63643 28.3478 9.98156 27.975 10.3106C27.7492 10.5104 27.7095 10.6753 27.961 10.8926C28.1966 11.0959 28.4091 11.3285 28.6174 11.5605C28.8076 11.7722 28.9679 11.7596 29.1574 11.557C29.4996 11.1916 29.8556 10.8388 30.2103 10.4755H30.2124ZM27.6482 16.5621C27.5903 16.6005 27.5095 16.6313 27.5109 16.6585C27.5144 16.7556 27.513 16.8842 27.5715 16.9443C28.2168 17.6066 28.869 18.2619 29.5323 18.9061C29.5929 18.9647 29.7407 18.9333 29.8487 18.9438C29.8243 18.8474 29.8298 18.7216 29.7699 18.6601C29.1233 17.9943 28.4662 17.3383 27.8105 16.6816C27.7666 16.6376 27.7088 16.6061 27.6482 16.5621ZM29.3309 19.4943L29.3518 19.377C29.3003 19.3106 29.2543 19.2386 29.1958 19.1792C28.5777 18.5505 27.9617 17.9189 27.3311 17.302C27.2489 17.2216 27.0879 17.2216 26.9632 17.1846C27.0036 17.3145 27.0071 17.4801 27.0914 17.5682C27.6308 18.1348 28.1882 18.6846 28.7401 19.24C28.8285 19.3294 28.9066 19.4447 29.0139 19.4957C29.0996 19.5362 29.2236 19.4978 29.3302 19.4943H29.3309Z" fill="#4E71FF"/>
</g>
<defs>
<clipPath id="clip0_7_101">
<rect width="50" height="50" fill="white"/>
</clipPath>
</defs>
</svg>
